PathFileType	4	(X/Y/Z)	C:\Users\dbl\Desktop\LZH\BX\bx_y_0_901.trc
DataRate	CameraRate	NumFrames	NumMarkers	Units	OrigDataRate	OrigDataStartFrame	OrigNumFrames
50.00	50.00	      8	43	mm	50.00	611	      1220
Frame#	Time	Top.Head			R.Acromium			L.Acromium			Sternum			R.ASIS			L.ASIS			V.Sacral			R.Thigh.Upper			R.Thigh.Front			R.Thigh.Rear			R.Knee.Lat			R.Knee.Med			R.Shank.Upper			R.Shank.Front			R.Shank.Rear			R.Ankle.Lat			R.Midfoot.Lat			R.Toe.Lat			R.Toe.Tip			R.Toe.Med			R.Ankle.Med			R.Midfoot.Sup			R.Heel			L.Thigh.Upper			L.Thigh.Front			L.Thigh.Rear			L.Knee.Lat			L.Knee.Med			L.Shank.Upper			L.Shank.Front			L.Shank.Rear			L.Ankle.Lat			L.Midfoot.Lat			L.Toe.Lat			L.Toe.Tip			L.Toe.Med			L.Ankle.Med			L.Midfoot.Sup			L.Heel			origin1 front left			origin2 front right			origin 3 back right			origin 4 back leftt			
		X1	Y1	Z1	X2	Y2	Z2	X3	Y3	Z3	X4	Y4	Z4	X5	Y5	Z5	X6	Y6	Z6	X7	Y7	Z7	X8	Y8	Z8	X9	Y9	Z9	X10	Y10	Z10	X11	Y11	Z11	X12	Y12	Z12	X13	Y13	Z13	X14	Y14	Z14	X15	Y15	Z15	X16	Y16	Z16	X17	Y17	Z17	X18	Y18	Z18	X19	Y19	Z19	X20	Y20	Z20	X21	Y21	Z21	X22	Y22	Z22	X23	Y23	Z23	X24	Y24	Z24	X25	Y25	Z25	X26	Y26	Z26	X27	Y27	Z27	X28	Y28	Z28	X29	Y29	Z29	X30	Y30	Z30	X31	Y31	Z31	X32	Y32	Z32	X33	Y33	Z33	X34	Y34	Z34	X35	Y35	Z35	X36	Y36	Z36	X37	Y37	Z37	X38	Y38	Z38	X39	Y39	Z39	X40	Y40	Z40	X41	Y41	Z41	X42	Y42	Z42	X43	Y43	Z43	

611	12.200	-214.36404	230.71817	1619.47522	-356.57083	40.01252	1346.92102	-349.69446	433.00192	1351.07178	-388.85138	246.29303	1222.89014	-630.60144	154.11971	1034.83618	-617.49225	383.70975	1041.84985	-811.95129	252.29266	1086.39136	-675.04053	96.86640	889.08221	-622.95178	152.33131	837.30377	-721.66113	89.95296	745.81110	-725.08569	122.59879	593.79816	-693.32428	227.44441	555.44574	-744.56775	122.31227	534.76489	-661.54541	166.72885	545.22864	-770.64447	123.77084	462.16742	-692.91534	141.63275	213.02432	-616.58142	77.11508	165.56349	-571.44055	50.75597	160.12413	-492.25674	94.28249	160.12576	-532.70959	145.10553	164.24991	-640.59991	215.89168	223.60522	-594.11395	187.83487	171.70364	-718.82642	211.27138	170.70343	-666.11627	436.03427	880.21033	-615.97290	376.80374	830.78339	-703.62231	445.77148	744.73383	-724.96112	421.15784	618.15808	-679.17499	318.43530	570.66425	-723.29181	419.68329	556.81683	-664.23083	378.20407	539.45679	-764.52100	424.49182	498.06525	-684.10565	419.00974	211.88446	-585.67938	469.17160	163.35759	-546.43213	480.64099	159.04732	-488.90326	426.78101	167.41486	-526.40387	387.53113	177.20029	-648.35358	330.78745	210.80553	-595.80054	349.92191	171.54390	-732.39703	345.65057	165.44160	-444.16196	448.56903	147.88960	-450.34158	75.75848	143.81622	-806.28485	82.65320	142.56419	-799.05463	457.94284	145.64442	
612	12.220	-225.75928	231.21133	1631.39136	-360.90878	40.27309	1355.07751	-354.30106	433.58212	1359.23938	-391.31296	246.98511	1227.81238	-628.70123	154.28186	1035.81641	-615.90808	383.66180	1042.59119	-810.57849	252.46851	1085.57520	-672.81818	97.35033	888.92670	-620.93445	152.59337	837.62396	-719.64160	90.20249	746.12793	-723.85992	122.73540	593.98773	-692.17505	227.53299	555.47620	-743.52948	122.50266	534.90771	-660.40948	166.78169	545.32483	-769.84937	123.97483	462.49603	-692.85925	141.78616	212.98189	-616.62744	77.14063	165.51047	-571.44550	50.78617	160.16977	-492.28470	94.26703	160.11493	-532.67145	145.11755	164.28952	-640.45038	215.90608	223.52609	-594.01196	187.90266	171.63347	-718.78223	211.35733	170.65146	-664.23645	436.25232	880.45825	-614.13080	377.25055	831.12048	-702.09967	445.80521	744.94940	-723.76636	421.26654	618.44824	-678.01257	318.56989	570.87018	-722.33636	419.70294	557.14813	-663.19855	378.23398	539.57098	-763.64069	424.54175	498.40369	-684.09821	418.96631	211.80548	-585.64380	469.18423	163.33234	-546.42859	480.66107	159.04639	-488.90894	426.85327	167.36551	-526.40973	387.55554	177.21582	-648.25824	330.70065	210.70679	-595.79120	349.92505	171.50645	-732.40448	345.56970	165.50281	-444.19815	448.59338	147.86353	-450.32672	75.77345	143.82913	-806.26819	82.61100	142.56818	-799.05194	457.95825	145.62732	
613	12.240	-237.32977	231.64694	1642.95105	-365.46570	40.65134	1363.06372	-359.08191	433.95728	1367.01501	-393.82147	247.67589	1232.80310	-626.54926	154.53627	1036.66431	-614.32031	383.61237	1043.34277	-809.15637	252.73302	1084.82544	-670.63257	97.82713	888.88129	-618.89716	152.80446	838.02954	-717.53162	90.54108	746.34619	-722.54712	122.89632	594.20697	-690.95465	227.60982	555.50427	-742.43958	122.69226	535.05902	-659.20465	166.79982	545.40234	-769.00171	124.21539	462.81491	-692.82648	141.97150	212.84323	-616.73413	77.14278	165.43507	-571.45215	50.79549	160.19736	-492.35419	94.23783	160.13739	-532.63336	145.13510	164.34477	-640.39764	215.81380	223.36011	-593.87329	187.94463	171.55847	-718.73431	211.45828	170.56683	-662.33527	436.52982	880.77808	-612.26782	377.77039	831.45282	-700.51904	445.86255	745.20111	-722.59283	421.34067	618.68787	-676.77295	318.66010	571.02606	-721.40869	419.68518	557.55280	-662.09711	378.29126	539.68744	-762.70245	424.55081	498.68982	-684.10040	418.89810	211.62552	-585.59875	469.21799	163.29434	-546.42773	480.66373	159.05800	-488.88675	426.92551	167.29778	-526.38263	387.59314	177.23653	-648.12488	330.60638	210.59579	-595.78119	349.94223	171.47102	-732.41278	345.55832	165.48517	-444.21747	448.61722	147.84685	-450.32553	75.78410	143.82901	-806.28094	82.59265	142.57310	-799.04523	457.97162	145.61215	
614	12.260	-249.09677	232.05466	1654.16284	-370.22021	41.16133	1370.93018	-363.98544	434.28772	1374.50928	-396.37704	248.36508	1237.86206	-624.13348	154.88895	1037.42639	-612.72943	383.56146	1044.10461	-807.69562	253.00328	1084.11694	-668.43152	98.21144	889.02509	-616.74121	152.97945	838.49689	-715.37372	90.93539	746.50397	-721.14581	123.09229	594.45642	-689.63141	227.69550	555.62488	-741.28876	122.89653	535.24969	-657.97034	166.81827	545.39691	-768.12537	124.56052	463.11084	-692.74915	142.19231	212.66972	-616.84186	77.15115	165.39360	-571.46185	50.80428	160.21495	-492.45767	94.14407	160.22551	-532.59009	145.14519	164.40038	-640.42419	215.63849	223.09998	-593.76788	187.92941	171.49234	-718.67090	211.57661	170.45346	-660.42285	436.86539	881.16357	-610.32996	378.33606	831.76990	-698.88245	445.89313	745.49786	-721.42133	421.32858	618.88904	-675.47742	318.75256	571.12708	-720.47992	419.59570	557.97491	-661.00067	378.40625	539.76050	-761.74268	424.51926	498.88647	-684.08771	418.81116	211.40839	-585.57074	469.27148	163.26292	-546.42957	480.64999	159.06322	-488.81290	426.96265	167.24001	-526.33087	387.64288	177.25415	-648.00055	330.52850	210.49445	-595.76251	349.96701	171.43402	-732.43921	345.63116	165.41460	-444.20999	448.62952	147.84723	-450.33206	75.79595	143.81888	-806.29602	82.59269	142.57333	-799.02747	457.95837	145.61295	
615	12.280	-261.03369	232.51205	1665.02588	-375.16205	41.74971	1378.72437	-369.01672	434.79980	1381.96130	-398.97995	249.05246	1242.98901	-621.52002	155.30664	1038.14722	-611.13580	383.50903	1044.87659	-806.20142	253.22922	1083.40247	-666.14709	98.47276	889.30542	-614.46216	153.14906	838.93988	-713.20038	91.34732	746.66626	-719.70697	123.31586	594.70483	-688.21960	227.82648	555.85907	-740.11694	123.12270	535.47534	-656.73828	166.85715	545.33136	-767.25098	124.99425	463.39682	-692.60126	142.42859	212.54208	-616.90454	77.18871	165.40666	-571.48273	50.83540	160.23996	-492.58301	93.96648	160.40886	-532.54761	145.13916	164.45869	-640.46045	215.43884	222.80464	-593.75275	187.85490	171.47029	-718.60620	211.68320	170.32211	-658.48633	437.22488	881.54688	-608.31122	378.88425	832.07697	-697.22638	445.86057	745.79291	-720.21869	421.29599	619.14319	-674.17694	318.88239	571.21777	-719.51379	419.45831	558.30536	-659.95032	378.56607	539.78064	-760.80994	424.46664	499.09177	-684.06262	418.69766	211.20517	-585.58582	469.32678	163.25555	-546.43475	480.63715	159.04916	-488.69916	426.96091	167.19981	-526.28229	387.69611	177.26151	-647.91656	330.48090	210.42807	-595.72046	349.97552	171.41119	-732.50073	345.75012	165.35562	-444.18277	448.62762	147.86214	-450.33820	75.80646	143.80571	-806.29156	82.59802	142.57892	-798.97162	457.91174	145.64140	
616	12.300	-273.10367	233.07964	1675.52942	-380.27530	42.34365	1386.45776	-374.18512	435.61148	1389.52820	-401.63037	249.73787	1248.18335	-618.81702	155.72588	1038.86597	-609.53992	383.45514	1045.65869	-804.67188	253.42049	1082.65820	-663.75256	98.62370	889.65570	-612.17902	153.34964	839.26056	-711.02301	91.73437	746.87231	-718.28290	123.52768	594.92511	-686.76550	228.00302	556.12305	-738.95215	123.36107	535.71588	-655.50732	166.92392	545.26379	-766.36328	125.45548	463.68723	-692.42664	142.64296	212.50072	-616.93079	77.24084	165.44348	-571.51337	50.89396	160.28012	-492.70929	93.75513	160.65474	-532.52655	145.11743	164.52097	-640.44189	215.28618	222.55000	-593.78845	187.76819	171.48401	-718.56982	211.74739	170.19633	-656.51184	437.59323	881.87378	-606.27246	379.37775	832.38318	-695.58020	445.76794	746.04272	-718.98010	421.32571	619.49103	-672.89490	319.03735	571.35614	-718.49524	419.32846	558.51178	-658.92651	378.73447	539.77441	-759.94592	424.37814	499.45282	-684.02496	418.56131	211.04395	-585.63641	469.36807	163.27441	-546.44220	480.64041	159.02217	-488.58344	426.94159	167.16988	-526.25269	387.73627	177.26617	-647.86133	330.45584	210.39204	-595.64099	349.94135	171.40465	-732.56903	345.84171	165.33015	-444.15320	448.62411	147.88190	-450.34021	75.81036	143.80594	-806.26801	82.59987	142.59370	-798.86499	457.85684	145.68678	
617	12.320	-285.29196	233.76074	1685.67346	-385.53278	42.90613	1394.10693	-379.49109	436.64145	1397.14197	-404.32840	250.42130	1253.44470	-616.14465	156.07336	1039.62012	-607.94220	383.39984	1046.45093	-803.08289	253.60635	1081.88049	-661.28442	98.71674	890.05115	-610.07697	153.63394	839.40295	-708.83582	92.04292	747.14355	-716.85681	123.69559	595.12189	-685.30219	228.17725	556.31256	-737.76599	123.59964	535.97180	-654.25562	167.00232	545.21381	-765.43243	125.89470	463.97833	-692.27832	142.80411	212.52290	-616.94824	77.26950	165.46835	-571.53748	50.96070	160.32806	-492.81314	93.58052	160.87764	-532.54803	145.08318	164.57190	-640.36401	215.21733	222.34294	-593.80194	187.71159	171.49329	-718.56293	211.77910	170.10704	-654.51141	437.99081	882.16150	-604.26691	379.84940	832.69501	-693.92578	445.64862	746.25995	-717.71759	421.41171	619.87616	-671.59778	319.17560	571.55316	-717.41522	419.23526	558.63977	-657.87854	378.85593	539.77698	-759.14380	424.21289	500.01230	-683.96716	418.42078	210.94374	-585.68323	469.38455	163.30840	-546.44836	480.65140	158.99878	-488.49579	426.93909	167.15466	-526.23285	387.74936	177.28453	-647.81238	330.42679	210.34677	-595.52319	349.85330	171.39796	-732.59149	345.85666	165.30630	-444.13559	448.62897	147.89748	-450.33997	75.80466	143.83202	-806.24078	82.59599	142.60480	-798.75140	457.81955	145.71259	
618	12.340	-297.60834	234.51918	1695.49341	-390.91821	43.46227	1401.62219	-384.93765	437.69577	1404.61072	-407.07364	251.10281	1258.77405	-613.61475	156.29070	1040.44958	-606.34296	383.34323	1047.25330	-801.39484	253.80843	1081.06323	-658.79590	98.82326	890.46173	-608.25049	154.02892	839.38483	-706.60309	92.22086	747.48285	-715.36353	123.83369	595.31366	-683.82257	228.32193	556.39752	-736.50763	123.83035	536.24835	-652.95752	167.07256	545.16150	-764.44690	126.27200	464.28156	-692.16461	142.90331	212.56641	-616.96436	77.26198	165.48384	-571.54340	51.01380	160.37093	-492.88461	93.46018	161.02408	-532.60608	145.04015	164.59721	-640.24127	215.23051	222.14323	-593.76807	187.68590	171.47620	-718.54736	211.81619	170.06856	-652.48883	438.41919	882.47235	-602.28357	380.34250	833.03650	-692.23920	445.53616	746.48657	-716.42114	421.51227	620.24725	-670.22247	319.25336	571.76978	-716.24554	419.16620	558.68024	-656.76862	378.88364	539.80469	-758.30902	423.98300	500.61554	-683.89136	418.28754	210.92860	-585.70239	469.37033	163.33887	-546.45398	480.65402	158.98154	-488.43405	426.96335	167.18565	-526.20355	387.74017	177.31306	-647.75391	330.37061	210.26231	-595.38757	349.73132	171.37065	-732.56146	345.81940	165.25264	-444.13263	448.63513	147.90331	-450.34247	75.78729	143.86963	-806.21960	82.58524	142.60710	-798.69873	457.80661	145.68582	
